<?xml version="1.0" encoding="UTF-8"?>
<svg width="48pt" height="48pt" version="1.1" viewBox="0 0 512 512" xmlns="http://www.w3.org/2000/svg">
 <g>
  <path d="m25.602 0h460.8c14.137 0 25.602 14.137 25.602 25.602v460.8c0 14.137-11.461 25.602-25.602 25.602h-460.8c-14.137 0-25.602-14.137-25.602-25.602v-460.8c0-14.137 11.461-25.602 25.602-25.602z" fill="#ff001b"/>
  <path d="m109.89 402.11h292.21c2.7812 0 5.0391-2.2578 5.0391-5.0391v-20.152c0-2.7812-2.2578-5.0391-5.0391-5.0391h-30.73l-7.4609-70.875 8.2578 12.383 2.0469 10.242c0.98828 4.9375 4.0898 9.1406 8.5195 11.543 2.5078 1.3594 5.2656 2.0469 8.0352 2.0469 2.1211 0 4.2539-0.40234 6.2812-1.2148 4.375-1.75 7.8398-5.2734 9.5156-9.6797 1.6719-4.4023 1.4258-9.3398-0.67969-13.559l-4.3125-8.6289c-0.015625-0.035156-0.046875-0.054687-0.066406-0.085937-0.011719-0.023437-0.011719-0.050781-0.019531-0.074219l-30.23-55.418c-0.55859-1.0273-1.4648-1.8281-2.5508-2.2656l-13.652-5.4609c10.25-8.3242 16.816-21.012 16.816-35.207 0-7.5938-2-15.07-5.6797-21.758l-2.6016-26.008c8.1172-3.4375 13.32-10.184 13.32-17.73 0-10.848-10.766-19.719-24.199-20.137-5.3555-9.2969-15.285-15.129-26.18-15.129-10.898 0-20.828 5.8359-26.184 15.129-13.434 0.41797-24.199 9.2891-24.199 20.137 0 7.5469 5.2031 14.293 13.316 17.73l-2.6016 26.008c-3.6758 6.6875-5.6758 14.164-5.6758 21.758 0 14.199 6.5703 26.883 16.82 35.199l-13.652 5.4609c-0.80469 0.32422-1.5156 0.85156-2.0625 1.5312l-17.004 21.254-20.547-16.434-5.4883-9.1445c-0.93359-1.5586-2.1211-2.875-3.4062-4.082l0.007813-13.633c0-6.5586-4.2266-12.102-10.078-14.188v-21.082h5.0391c8.332 0 15.113-6.7812 15.113-15.113v-30.23c0-8.332-6.7812-15.113-15.113-15.113h-20.152c-8.332 0-15.113 6.7812-15.113 15.113v30.23c0 8.332 6.7812 15.113 15.113 15.113h5.0391v21.078c-5.8477 2.0859-10.078 7.6289-10.078 14.188v20.152 0.019531c-1.2578 2.9961-1.8242 6.2656-1.4141 9.6133 0.71875 5.8281 4.0195 10.906 9.0547 13.93l9.5312 5.7188 33.492 29.305c5.6289 4.918 13.875 5.0234 19.629 0.23047l14.082-11.738-8.3086 78.875h-88.078l5.9102-11.82c9.4336-3.6406 16.168-12.742 16.168-23.445v-11.004c5.8477-2.0859 10.078-7.6289 10.078-14.188 0-8.332-6.7812-15.113-15.113-15.113h-90.688c-8.332 0-15.113 6.7812-15.113 15.113 0 6.5586 4.2266 12.102 10.078 14.188l-0.003906 11.004c0 10.699 6.7344 19.805 16.168 23.449l5.9102 11.816h-27.117c-2.7812 0-5.0391 2.2578-5.0391 5.0391v20.152c0.003906 2.7812 2.2578 5.0391 5.0391 5.0391zm125.95-256.94v30.23c0 2.7773-2.2617 5.0391-5.0391 5.0391h-5.0391l0.003907-40.309h5.0391c2.7734 0 5.0352 2.2617 5.0352 5.0391zm-25.191 35.266c-2.7773 0-5.0391-2.2617-5.0391-5.0391v-30.23c0-2.7773 2.2617-5.0391 5.0391-5.0391h5.0391v40.305zm99.613 67.484c0.20312 0.074219 0.40625 0.13281 0.60938 0.20313 1.0117 0.37109 2.0312 0.73047 3.0742 1.0312 0.39844 0.11719 0.80078 0.20703 1.1992 0.30859 0.96094 0.25 1.9258 0.49219 2.9062 0.67969 0.49219 0.097656 0.99219 0.15234 1.4844 0.22656 0.91016 0.14062 1.8203 0.29297 2.7461 0.38281 0.64844 0.058594 1.3047 0.066406 1.9531 0.10156 0.76953 0.039063 1.5195 0.11328 2.293 0.11328 0.76953 0 1.5234-0.074219 2.2891-0.11719 0.65625-0.035156 1.3047-0.039062 1.9531-0.10156 0.92578-0.085938 1.832-0.23828 2.7461-0.38281 0.49219-0.074219 0.99219-0.13281 1.4844-0.22656 0.98438-0.1875 1.9453-0.43359 2.9062-0.67969 0.39844-0.10547 0.80078-0.19141 1.1992-0.30859 1.043-0.30078 2.0664-0.65625 3.0742-1.0312 0.20312-0.074219 0.40625-0.125 0.60938-0.20312l7.4297 28.242h-47.383zm86.883 74.82c-0.68359 1.7969-2.0508 3.1875-3.8398 3.9062-1.8789 0.75-3.9883 0.62891-5.7734-0.33594-1.7852-0.96875-3.043-2.6641-3.4414-4.6562l-1.3008-6.5039 11.574-2.8906 2.5039 5.0117c0.86328 1.7227 0.96094 3.6641 0.27734 5.4688zm-7.6289-19.664-10.387 2.5938-17.715-26.57-7.3164-27.801 9.1797 3.6719zm-103.29-162.95c0-5.4609 6.9219-10.078 15.113-10.078 0.29297 0 0.57031 0.035156 0.85156 0.066406l0.8125 0.074219c2.1211 0.125 4.1562-1.0586 5.0117-3.0391 3.1836-7.418 10.453-12.215 18.516-12.215s15.332 4.7969 18.52 12.219c0.85156 1.9805 2.918 3.2031 5.0117 3.0391l0.8125-0.074218c0.27734-0.035157 0.55469-0.070313 0.84375-0.070313 8.1914 0 15.113 4.6133 15.113 10.078 0 4.0273-4.0703 7.875-9.8984 9.3672-2.4141 0.61328-4.0156 2.9023-3.7695 5.3789l3.0664 30.598h-59.398l3.0586-30.59c0.24609-2.4805-1.3555-4.7656-3.7695-5.3789-5.8242-1.5-9.8945-5.3516-9.8945-9.375zm5.0352 65.496c0-3.4141 0.50781-6.8125 1.4844-10.078h67.555c0.98828 3.2656 1.4961 6.6602 1.4961 10.078 0 13.984-8.207 26.062-20.035 31.762-1.1445 0.55078-2.3125 1.0391-3.4961 1.457-0.054687 0.019531-0.10938 0.039062-0.16797 0.058594-7.5078 2.625-15.637 2.625-23.145 0-0.054687-0.019532-0.10938-0.039063-0.16797-0.058594-1.1836-0.41797-2.3477-0.90625-3.4961-1.457-11.82-5.7031-20.027-17.777-20.027-31.762zm-75.57 20.152c0-2.7773 2.2617-5.0391 5.0391-5.0391s5.0391 2.2617 5.0391 5.0391v8.7578c-0.03125-0.003906-0.066407-0.003906-0.097657-0.011719-0.12109-0.015625-0.22656-0.070312-0.34766-0.085937-0.27734-0.035156-0.55078 0.015625-0.82031-0.011719-0.875-0.070313-1.7422-0.082031-2.6211-0.03125-0.4375 0.023437-0.87109 0.023437-1.3008 0.082031-1.0391 0.13281-2.0508 0.37109-3.0547 0.67578-0.42969 0.13281-0.83984 0.26562-1.2578 0.42187-0.19141 0.070313-0.38672 0.11719-0.57422 0.19141v-9.9883zm-1.4844 28.551c-0.22266-1.7773 0.14453-3.5156 0.93359-5.0625 0.019531-0.039063 0.054688-0.066407 0.074219-0.10547 0.21484-0.41406 0.43359-0.76562 0.65625-1.0938 0.27344-0.37891 0.53906-0.76172 0.87109-1.0938 0.70703-0.71094 1.5273-1.25 2.3867-1.668 0.070313-0.035156 0.14063-0.082031 0.21094-0.11719 0.86328-0.38672 1.7773-0.62891 2.7148-0.72656 0.070312-0.003906 0.13672-0.015625 0.20703-0.019531 0.91016-0.074219 1.832 0.003906 2.7422 0.21094 0.097657 0.019531 0.19141 0.039062 0.28125 0.066406 0.94141 0.25 1.8594 0.64062 2.6992 1.2148 0.023438 0.015624 0.054688 0.023437 0.082031 0.039062 1.0117 0.70703 1.8945 1.6055 2.5547 2.707l3.9258 6.543-9.5508 9.5508-6.543-3.9258c-2.3672-1.4141-3.9141-3.7891-4.2461-6.5195zm55.25 42.676c-1.9141 1.5938-4.6719 1.5664-6.543-0.074219l-29.781-26.059 8.1172-8.1172 21.668 17.336c2.168 1.7383 5.3398 1.3906 7.0781-0.78516l19.32-24.152 9.6289-3.8477-7.1172 27.059zm31.379-10.77h51.387l9.0195 85.648-69.418-0.003906zm-113.45 75.57-5.0391 10.078-12-0.003906v-10.078zm-67.418-55.418h90.688c2.7773 0 5.0391 2.2617 5.0391 5.0391s-2.2617 5.0391-5.0391 5.0391l-90.688-0.003907c-2.7773 0-5.0391-2.2617-5.0391-5.0391 0-2.7734 2.2617-5.0352 5.0391-5.0352zm5.0391 30.227v-10.078h80.609v10.078c0 8.332-6.7812 15.113-15.113 15.113h-50.383c-8.332 0-15.113-6.7812-15.113-15.113zm18.227 25.191h17.039v10.078h-12zm-28.305 20.152h282.14v10.078l-282.14-0.003906z" fill="#fff"/>
  <path d="m341.65 306.38h-30.23c-2.7812 0-5.0391 2.2578-5.0391 5.0391v15.113c0 11.113 9.0391 20.152 20.152 20.152s20.152-9.0391 20.152-20.152v-15.113c0.003906-2.7852-2.2539-5.0391-5.0352-5.0391zm-5.0391 20.152c0 5.5586-4.5195 10.078-10.078 10.078s-10.078-4.5195-10.078-10.078v-10.078h20.152z" fill="#fff"/>
  <path d="m160.28 256h10.078v25.191h-10.078z" fill="#fff"/>
  <path d="m185.47 266.08h10.078v20.152h-10.078z" fill="#fff"/>
  <path d="m135.09 266.08h10.078v20.152h-10.078z" fill="#fff"/>
  <path d="m160.28 235.85h10.078v10.078h-10.078z" fill="#fff"/>
  <path d="m135.09 245.93h10.078v10.078h-10.078z" fill="#fff"/>
  <path d="m185.47 245.93h10.078v10.078h-10.078z" fill="#fff"/>
 </g>
</svg>
